<svg xmlns="http://www.w3.org/2000/svg" width="12" height="12" viewBox="0 0 12 12">
    <path fill="#9B9B9B" fill-rule="nonzero" d="M6 0a6 6 0 1 0 0 12A6 6 0 0 0 6 0zm1.294 9.364c-.314.124-.564.218-.751.283a1.984 1.984 0 0 1-.652.097c-.38 0-.676-.092-.886-.278a.899.899 0 0 1-.317-.706 2.5 2.5 0 0 1 .024-.34c.016-.115.041-.246.076-.392l.393-1.388c.035-.133.064-.26.088-.378.024-.12.036-.228.036-.326 0-.177-.037-.301-.11-.37-.073-.07-.213-.105-.42-.105-.101 0-.205.016-.312.047a4.263 4.263 0 0 0-.274.09l.105-.427a9.98 9.98 0 0 1 .738-.27c.234-.074.457-.11.666-.11.378 0 .669.09.873.273.205.182.307.419.307.71 0 .06-.007.167-.021.319a2.16 2.16 0 0 1-.079.418l-.39 1.384c-.032.111-.061.238-.086.38-.026.143-.039.25-.039.324 0 .184.042.309.124.376.082.066.225.1.427.1.095 0 .203-.017.323-.05a1.79 1.79 0 0 0 .261-.088l-.104.427zm-.07-5.618a.933.933 0 0 1-.658.255.94.94 0 0 1-.66-.255.807.807 0 0 1-.276-.615c0-.241.092-.447.275-.619a.936.936 0 0 1 .661-.256c.257 0 .477.085.659.256a.818.818 0 0 1 .273.619.81.81 0 0 1-.273.615z"/>
</svg>
